PathFileType	4	(X/Y/Z)	s02c0001.trc
DataRate	CameraRate	NumFrames	NumMarkers	Units	OrigDataRate	OrigDataStartFrame	OrigNumFrames
200	200	4	49	mm	200	1750	2000
Frame#	Time	racr			lacr			c7			jug			rlel			rdr			llel			ldr			s2			lic			ric			lasi			rasi			rpsi			lpsi			rgt			lgt			rth1			rth2			rth3			rth4			rlfc			rmfc			rsh1			rsh2			rsh3			rsh4			rlmal			rmmal			rcal			rtoe			rmt5			rmt1			lth1			lth2			lth4			lth3			llfc			lmfc			lsh1			lsh2			lsh3			lsh4			llmal			lmmal			lcal			ltoe			lmt1			lmt5			
		X1	Y1	Z1	X2	Y2	Z2	X3	Y3	Z3	X4	Y4	Z4	X5	Y5	Z5	X6	Y6	Z6	X7	Y7	Z7	X8	Y8	Z8	X9	Y9	Z9	X10	Y10	Z10	X11	Y11	Z11	X12	Y12	Z12	X13	Y13	Z13	X14	Y14	Z14	X15	Y15	Z15	X16	Y16	Z16	X17	Y17	Z17	X18	Y18	Z18	X19	Y19	Z19	X20	Y20	Z20	X21	Y21	Z21	X22	Y22	Z22	X23	Y23	Z23	X24	Y24	Z24	X25	Y25	Z25	X26	Y26	Z26	X27	Y27	Z27	X28	Y28	Z28	X29	Y29	Z29	X30	Y30	Z30	X31	Y31	Z31	X32	Y32	Z32	X33	Y33	Z33	X34	Y34	Z34	X35	Y35	Z35	X36	Y36	Z36	X37	Y37	Z37	X38	Y38	Z38	X39	Y39	Z39	X40	Y40	Z40	X41	Y41	Z41	X42	Y42	Z42	X43	Y43	Z43	X44	Y44	Z44	X45	Y45	Z45	X46	Y46	Z46	X47	Y47	Z47	X48	Y48	Z48	X49	Y49	Z49	
1750	8.7500	565.326416	1429.385742	565.022705	592.978577	1422.170532	161.733215	545.842468	1479.676636	357.633514	648.312622	1381.803711	365.731201	533.115112	1143.639893	634.131226	625.137573	1017.946472	778.812012	566.251221	1113.661621	128.615128	739.723633	1039.526245	21.889479	477.503082	973.861633	363.622559	635.137512	1017.891724	228.461533	602.146118	1020.531921	514.058777	681.952454	968.657104	260.576691	651.389709	971.829102	494.716736	487.075165	1000.102600	408.199585	498.962006	996.005493	323.874725	552.587036	886.487000	538.651184	568.956482	886.145508	205.060852	587.624756	802.089600	551.698364	605.671753	714.370178	548.874451	579.387329	633.080444	558.471313	638.872498	712.255066	530.848999	559.223999	499.233795	515.292480	562.719299	484.307098	411.139465	529.901184	397.940674	532.621765	543.990417	311.263062	517.380310	514.519897	230.050735	513.770996	564.367126	313.519592	483.680206	503.203278	101.226341	499.459839	515.081482	114.574135	421.588043	451.158386	53.645363	442.753479	726.942017	86.633400	498.845917	615.373291	48.351276	537.569092	657.238098	71.492737	436.109314	597.528015	759.799683	187.916016	607.380676	672.934021	194.414124	641.336670	670.192566	210.210602	570.590210	592.621338	203.357117	563.028992	494.995544	224.150009	559.386658	469.041046	322.139954	537.050537	399.333557	200.051010	555.246155	315.764801	215.278931	529.166748	228.833572	214.384003	574.803589	318.117249	250.452728	518.895935	114.156166	231.678970	541.690063	118.663368	309.800171	468.756287	58.329983	277.581116	751.424988	81.915276	249.417786	674.136719	70.413757	302.661377	646.788452	46.431786	196.293121	
1751	8.7550	565.369080	1429.381958	565.029480	593.001526	1422.157959	161.745667	545.877136	1479.668091	357.635284	648.358154	1381.810669	365.743011	533.115051	1143.639893	634.131226	625.160156	1017.959595	778.828308	566.283264	1113.650269	128.625275	739.733704	1039.493530	21.903605	477.528564	973.878418	363.634277	635.170959	1017.898804	228.473618	602.192139	1020.523010	514.057190	681.986145	968.641479	260.600555	651.414429	971.820374	494.702759	487.097931	1000.113708	408.220734	498.998169	995.991638	323.898285	552.601746	886.492371	538.667053	568.985596	886.149170	205.058014	587.661560	802.087341	551.699463	605.669434	714.357361	548.880188	579.387085	633.072266	558.481995	638.887268	712.257874	530.878479	559.248230	499.236206	515.287781	562.780945	484.332703	411.143188	529.898987	397.938385	532.631897	544.008423	311.268951	517.389038	514.504822	230.050034	513.781067	564.365479	313.520691	483.687378	503.179504	101.230141	499.456940	515.079590	114.580406	421.586700	451.182281	53.639969	442.764954	726.926819	86.629662	498.853058	615.349976	48.357620	537.574036	657.235168	71.474045	436.113007	597.554749	759.794983	187.930527	607.410217	672.909363	194.419434	641.354492	670.198303	210.234634	570.605103	592.615662	203.378998	563.035583	495.016205	224.148453	559.387695	469.047974	322.136902	537.055847	399.348511	200.066025	555.263489	315.771851	215.279861	529.206726	228.833450	214.379883	574.828125	318.118225	250.449966	518.875305	114.170044	231.676041	541.734192	118.654320	309.800018	468.748596	58.332638	277.579407	751.454895	81.898010	249.409851	674.132629	70.428635	302.664795	646.770508	46.415760	196.294250	
1752	8.7600	565.394287	1429.381714	565.029907	593.030029	1422.144165	161.745621	545.923462	1479.668091	357.629791	648.386230	1381.794067	365.746552	533.148865	1143.646606	634.137451	625.212952	1017.985779	778.855347	566.317139	1113.648071	128.643036	739.760803	1039.499512	21.917431	477.555695	973.877319	363.641785	635.190674	1017.910828	228.464554	602.223022	1020.511475	514.070435	682.013062	968.642090	260.597687	651.451538	971.809082	494.718231	487.162354	1000.092468	408.209290	499.101349	996.112305	323.867035	552.614624	886.522705	538.678467	568.998291	886.140442	205.055191	587.680481	802.081848	551.694702	605.689514	714.357544	548.872681	579.384888	633.072388	558.484680	638.905701	712.248962	530.877075	559.244934	499.238861	515.298645	562.779785	484.324158	411.141327	529.923706	397.925537	532.620667	544.015869	311.259094	517.396423	514.530151	230.038483	513.765747	564.398193	313.530731	483.692017	503.182159	101.243881	499.455811	516.169800	114.096939	421.394073	451.167114	53.631477	442.762268	726.942932	86.630783	498.845612	615.364624	48.281815	537.621094	657.238464	71.483810	436.104462	597.574158	759.790955	187.931519	607.413269	672.927795	194.427017	641.380127	670.188599	210.234558	570.620056	592.603516	203.376465	563.036255	494.994965	224.160461	559.387268	469.044098	322.141479	537.055054	399.340607	200.074142	555.269409	315.759827	215.293320	529.209717	228.837677	214.402542	574.834290	318.119659	250.455688	518.865662	114.153694	231.677124	541.723572	118.651947	309.788208	468.755920	58.338974	277.574005	751.453735	81.898079	249.410233	674.137756	70.415497	302.661102	646.762634	46.414047	196.276886	
1753	8.7650	565.426636	1429.406738	565.032227	593.065979	1422.142700	161.750381	545.966492	1479.670288	357.619263	648.402344	1381.793579	365.738922	533.212402	1143.636353	634.139221	625.245605	1017.984436	778.850342	566.349854	1113.645752	128.657089	739.784729	1039.490112	21.920002	477.617035	973.880005	363.630280	635.230042	1017.891418	228.472107	602.229492	1020.515503	514.089966	682.054565	968.645386	260.615112	651.468872	971.804138	494.730286	487.192413	1000.089111	408.204529	499.121582	996.108765	323.860168	552.640198	886.482117	538.672607	569.035889	886.141663	205.059708	587.692566	802.077820	551.702881	605.702271	714.369690	548.881348	579.401733	633.062805	558.489319	638.903381	712.239319	530.880310	559.234253	499.241852	515.306091	562.781494	484.329773	411.143005	529.916809	397.940643	532.620605	544.015381	311.259399	517.397278	514.531433	230.044205	513.769958	564.378113	313.517365	483.682526	503.178040	101.220413	499.459290	516.192688	114.108002	421.401611	451.172913	53.656712	442.771576	726.928467	86.619652	498.872742	615.373657	48.350262	537.570068	657.219849	71.465248	436.113525	597.603333	759.793579	187.933640	607.460205	672.914062	194.414902	641.400391	670.182678	210.245972	570.644836	592.612732	203.370544	563.061096	495.010590	224.158691	559.379211	469.058380	322.140625	537.076538	399.350647	200.076233	555.265198	315.772247	215.297333	529.170898	228.831360	214.376389	574.826050	318.115143	250.460541	518.892517	114.159119	231.677170	541.733582	118.656212	309.800903	468.754242	58.338215	277.586456	751.457336	81.909309	249.401443	674.133179	70.432404	302.662720	646.744873	46.426937	196.277069	
